<svg width="29" height="31" viewBox="0 0 29 31" fill="none" xmlns="http://www.w3.org/2000/svg">
<path d="M29 11.5729C29 16.3411 29 21.109 29 25.8773C28.9892 25.9107 28.9734 25.9434 28.968 25.9779C28.8701 26.6166 28.578 27.1517 28.1019 27.5859C27.6936 27.9582 27.2082 28.1743 26.6638 28.2627C26.6519 28.3248 26.6393 28.377 26.6318 28.4298C26.476 29.5192 25.6956 30.3972 24.6317 30.6772C24.5057 30.7102 24.3776 30.7361 24.2503 30.7652C17.5461 30.7652 10.8415 30.7652 4.13736 30.7652C4.11577 30.7559 4.09526 30.7419 4.07259 30.7379C2.73125 30.5075 1.85945 29.5655 1.72453 28.2116C1.71841 28.1502 1.64681 28.0722 1.58565 28.0427C0.818548 27.6711 0.318424 27.0784 0.0885112 26.259C0.0536104 26.1332 0.0295037 26.0045 0 25.8773C0 21.109 0 16.3411 0 11.5729C0.010794 11.5395 0.0255459 11.5064 0.0320223 11.4723C0.243945 10.3358 0.903821 9.59544 2.01057 9.2655C2.16601 9.21914 2.19767 9.15696 2.19731 9.0114C2.19335 6.73097 2.19263 4.45089 2.19551 2.17046C2.19659 1.19467 2.81869 0.362641 3.74086 0.0887735C3.84844 0.0567863 3.9571 0.0294714 4.0654 0C10.9736 0 17.8818 0 24.79 0C24.8047 0.00934457 24.8187 0.0244397 24.8346 0.0265961C25.7614 0.144482 26.6804 1.00239 26.6674 2.2772C26.6447 4.50876 26.6609 6.74067 26.6609 8.97259C26.6609 9.04303 26.6609 9.11348 26.6609 9.1832C26.7422 9.20189 26.8059 9.21555 26.8693 9.231C27.9253 9.49409 28.6021 10.1522 28.9104 11.1912C28.9478 11.3163 28.9705 11.4457 29 11.5729ZM23.5717 25.3364C23.5717 25.2404 23.5717 25.1635 23.5717 25.0866C23.5717 20.7025 23.5706 16.3185 23.5724 11.9348C23.5728 10.6906 24.3193 9.66121 25.4891 9.2957C25.6229 9.25365 25.6621 9.19938 25.6618 9.06208C25.6571 6.76835 25.6589 4.47461 25.6582 2.18088C25.6582 1.5016 25.1577 1.00239 24.4766 1.00239C17.7796 1.00203 11.0822 1.00203 4.38526 1.00239C3.69336 1.00239 3.19756 1.4998 3.19756 2.19274C3.1972 3.47438 3.19756 4.75603 3.19756 6.03767C3.19756 7.04365 3.19756 8.04999 3.1972 9.05597C3.1972 9.14007 3.18496 9.21735 3.30694 9.24179C4.39821 9.45815 5.44092 10.4886 5.43444 12.029C5.41609 16.3889 5.42797 20.7489 5.42797 25.1089C5.42797 25.184 5.42797 25.2587 5.42797 25.3367C11.4863 25.3364 17.5166 25.3364 23.5717 25.3364ZM14.2122 26.3398C10.9621 26.3398 7.71163 26.3395 4.46154 26.3398C3.49223 26.3398 2.72981 27.0942 2.72981 28.0517C2.72981 29.0088 3.49223 29.7632 4.46154 29.7632C10.9498 29.7635 17.4381 29.7632 23.9268 29.7628C24.0106 29.7628 24.0952 29.7618 24.1779 29.7495C25.0915 29.6148 25.7258 28.8233 25.656 27.9079C25.5887 27.0224 24.8371 26.3398 23.9268 26.3398C20.6886 26.3398 17.4504 26.3398 14.2122 26.3398ZM27.9972 18.7226C27.9972 16.4353 27.9983 14.148 27.9965 11.8604C27.9958 10.9242 27.2273 10.1665 26.2846 10.1662C25.3415 10.1658 24.5705 10.9227 24.5701 11.8579C24.5687 16.3189 24.5698 20.7798 24.5672 25.2404C24.5672 25.3651 24.596 25.4226 24.7274 25.4643C25.5718 25.7332 26.164 26.2809 26.4789 27.1118C26.5296 27.2455 26.5893 27.266 26.7167 27.2326C27.4626 27.0371 27.9962 26.3567 27.9965 25.584C27.998 23.2975 27.9972 21.0102 27.9972 18.7226ZM4.43024 25.3339C4.43024 25.2505 4.43024 25.1851 4.43024 25.12C4.43024 20.7122 4.43024 16.3045 4.43024 11.8967C4.43024 10.9288 3.67501 10.1669 2.71758 10.1669C1.75943 10.1669 1.00349 10.9281 1.00349 11.8953C1.00313 16.4468 1.00313 20.9983 1.00493 25.5495C1.00493 25.6803 1.01392 25.8144 1.04306 25.9413C1.1582 26.4441 1.44316 26.8211 1.90551 27.0795C2.39772 25.9862 3.23318 25.4115 4.43024 25.3339Z" fill="#C5C9DD"/>
<path d="M23.5717 25.3363C17.5166 25.3363 11.4867 25.3363 5.42838 25.3363C5.42838 25.2583 5.42838 25.1832 5.42838 25.1085C5.42838 20.7485 5.4165 16.3885 5.43485 12.0286C5.44133 10.4882 4.39862 9.4581 3.30735 9.24138C3.18537 9.2173 3.19761 9.14003 3.19761 9.05557C3.19797 8.04959 3.19797 7.04325 3.19797 6.03727C3.19797 4.75562 3.19761 3.47398 3.19797 2.19233C3.19833 1.4994 3.69413 1.00198 4.38567 1.00198C11.0827 1.00162 17.78 1.00162 24.477 1.00198C25.1581 1.00198 25.6582 1.50119 25.6586 2.18047C25.6589 4.47421 25.6575 6.76794 25.6622 9.06168C25.6625 9.19897 25.6237 9.25324 25.4895 9.29529C24.3198 9.66081 23.5732 10.6898 23.5728 11.9344C23.571 16.3185 23.5721 20.7025 23.5721 25.0862C23.5717 25.1635 23.5717 25.2404 23.5717 25.3363Z" fill="#C5C9DD"/>
<path d="M14.2121 26.3398C17.4503 26.3398 20.6885 26.3394 23.9267 26.3398C24.837 26.3398 25.5886 27.0223 25.6559 27.9079C25.7254 28.8236 25.0914 29.615 24.1779 29.7495C24.0955 29.7617 24.0106 29.7627 23.9267 29.7627C17.4384 29.7635 10.9501 29.7635 4.46146 29.7631C3.49216 29.7631 2.72974 29.0087 2.72974 28.0516C2.72974 27.0945 3.49216 26.3401 4.46146 26.3398C7.71191 26.3398 10.962 26.3398 14.2121 26.3398Z" fill="#C5C9DD"/>
<path d="M27.9973 18.7225C27.9973 21.0098 27.998 23.2971 27.9969 25.5843C27.9965 26.3571 27.4629 27.0374 26.7171 27.2329C26.5897 27.2664 26.53 27.2459 26.4793 27.1122C26.1644 26.2812 25.5722 25.7335 24.7277 25.4647C24.5968 25.423 24.5676 25.3655 24.5676 25.2407C24.5705 20.7798 24.5691 16.3188 24.5705 11.8582C24.5709 10.9231 25.3416 10.1665 26.285 10.1665C27.2276 10.1669 27.9962 10.9241 27.9969 11.8607C27.9983 14.148 27.9973 16.4353 27.9973 18.7225Z" fill="#C5C9DD"/>
<path d="M4.43084 25.334C3.23378 25.4116 2.39833 25.9863 1.90612 27.0796C1.44341 26.8212 1.15881 26.4445 1.04367 25.9414C1.01453 25.8145 1.00553 25.6804 1.00553 25.5496C1.00373 20.9981 1.00373 16.4465 1.00409 11.8954C1.00409 10.9282 1.7604 10.1666 2.71819 10.167C3.67562 10.167 4.43084 10.9293 4.43084 11.8968C4.4312 16.3046 4.43084 20.7123 4.43084 25.1201C4.43084 25.1852 4.43084 25.2502 4.43084 25.334Z" fill="#C5C9DD"/>
</svg>
